<?xml version="1.0" encoding="UTF-8"?>
<!DOCTYPE svg PUBLIC "-//W3C//DTD SVG 1.1//EN" "http://www.w3.org/Graphics/SVG/1.1/DTD/svg11.dtd">
<!-- Creator: CorelDRAW -->
<svg xmlns="http://www.w3.org/2000/svg" xml:space="preserve" width="26.0762mm" height="17.4112mm" style="shape-rendering:geometricPrecision; text-rendering:geometricPrecision; image-rendering:optimizeQuality; fill-rule:evenodd; clip-rule:evenodd"
viewBox="0 0 4.24062 2.83148"
 xmlns:xlink="http://www.w3.org/1999/xlink">
 <defs>
  <style type="text/css">
   <![CDATA[
    .str0 {stroke:#4D4948;stroke-width:0.0123919}
    .str1 {stroke:#838281;stroke-width:0.229479;stroke-linecap:round}
    .fil2 {fill:none}
    .fil0 {fill:#4D4948}
    .fil1 {fill:white;fill-rule:nonzero}
   ]]>
  </style>
 </defs>
 <g id="Diagram">
  <metadata id="CorelCorpID_0Corel-Layer"/>
  <g id="_46320264">
   <path id="_89705936" class="fil0 str0" d="M0.331444 0.44006l3.57773 -6.50496e-005c0.179147,0 0.325248,0.146101 0.325248,0.325248l0 1.30099c0,0.179147 -0.146101,0.325313 -0.325248,0.325313l-3.57773 -6.50496e-005c-0.179147,0 -0.325248,-0.146101 -0.325248,-0.325248l0 -1.30099c0,-0.179147 0.146101,-0.325183 0.325248,-0.325183z"/>
   <path id="_48856928" class="fil1" d="M1.50149 1.82783c0,0.00507387 -0.000910694,0.00917199 -0.00279713,0.0126196 -0.00182139,0.00325248 -0.00591951,0.00598456 -0.0128148,0.0082613 -0.00663506,0.00234179 -0.0165226,0.00390298 -0.0295976,0.00481367 -0.0128798,0.000910694 -0.0305083,0.00143109 -0.0530154,0.00143109 -0.0187993,0 -0.0339559,-0.000520397 -0.0450143,-0.00143109 -0.0111885,-0.000910694 -0.0201654,-0.00273208 -0.0266053,-0.00500882 -0.00643991,-0.00253693 -0.0109934,-0.00572436 -0.0137255,-0.00943219 -0.00279713,-0.00390298 -0.00507387,-0.00845645 -0.00689526,-0.0137905l-0.0777993 -0.194368c-0.00943219,-0.0219868 -0.0186042,-0.0415016 -0.027581,-0.0584796 -0.00917199,-0.0169779 -0.0189945,-0.0312238 -0.0300529,-0.0426725 -0.0109934,-0.0115138 -0.023613,-0.0199702 -0.0378589,-0.0259548 -0.014441,-0.00572436 -0.0309636,-0.00871664 -0.0497629,-0.00871664l-0.055097 0 0 0.331623c0,0.00435832 -0.00162624,0.00845645 -0.00435832,0.0119041 -0.00299228,0.00364278 -0.00780595,0.00663506 -0.014441,0.00871664 -0.00689526,0.00227674 -0.0158721,0.00416317 -0.0271257,0.00552921 -0.0109934,0.00136604 -0.0254344,0.00208159 -0.0428677,0.00208159 -0.0169779,0 -0.0312238,-0.000715545 -0.0426725,-0.00208159 -0.0115138,-0.00136604 -0.0206858,-0.00325248 -0.0273208,-0.00552921 -0.00670011,-0.00208159 -0.0115138,-0.00507387 -0.0140507,-0.00871664 -0.00273208,-0.00344763 -0.00409812,-0.00754575 -0.00409812,-0.0119041l0 -0.790157c0,-0.01971 0.00507387,-0.0339559 0.0151566,-0.0426725 0.0100827,-0.00871664 0.0225072,-0.013075 0.0374035,-0.013075l0.225137 0c0.0228975,0 0.0417618,0.000455347 0.056463,0.00136604 0.0148964,0.000910694 0.0281665,0.00208159 0.0403307,0.00325248 0.0349316,0.00500882 0.0663506,0.0135303 0.0945821,0.0256946 0.0279713,0.0121643 0.0516494,0.0277762 0.0711642,0.047226 0.0194498,0.0195149 0.0344112,0.0427376 0.0446891,0.0693429 0.0103429,0.0266053 0.0154168,0.0573737 0.0154168,0.091785 0,0.0291422 -0.00370783,0.0557475 -0.0110584,0.0796207 -0.00728555,0.0241334 -0.018344,0.0454697 -0.0325248,0.064269 -0.0145061,0.0187993 -0.0321345,0.0351268 -0.0532756,0.0491124 -0.0208809,0.0137905 -0.0449493,0.024979 -0.0718147,0.0335005 0.013075,0.00643991 0.0252392,0.0139857 0.036688,0.0229625 0.0112536,0.00891179 0.0220518,0.01971 0.0321345,0.0325898 0.0100827,0.0128148 0.0197751,0.0272558 0.0286869,0.0435832 0.00897684,0.0165226 0.0176935,0.0348666 0.0261499,0.0555523l0.0732458 0.171406c0.00689526,0.0169779 0.0112536,0.0295976 0.0135303,0.0374035 0.00227674,0.00780595 0.00344763,0.0139857 0.00344763,0.018344zm-0.228129 -0.590195c0,-0.0286869 -0.00643991,-0.0528203 -0.0195149,-0.0725303 -0.0128148,-0.0197751 -0.034151,-0.0337607 -0.0637486,-0.0417618 -0.00897684,-0.00234179 -0.0190595,-0.00416317 -0.0305733,-0.00526902 -0.0114487,-0.00143109 -0.0272558,-0.00208159 -0.0474862,-0.00208159l-0.0791653 0 0 0.246668 0.0899636 0c0.0252392,0 0.0470309,-0.00299228 0.0658302,-0.00917199 0.0188644,-0.00598456 0.0346714,-0.014441 0.0470959,-0.0254344 0.0126196,-0.0110584 0.0219868,-0.0241334 0.0281665,-0.03929 0.00643991,-0.0153517 0.00943219,-0.0323296 0.00943219,-0.051129zm1.07052 0.547327c0.00533407,0.0160022 0.00878169,0.028882 0.0101477,0.0383142 0.00110584,0.00936714 -0.000455347,0.0165226 -0.00552921,0.0210761 -0.00481367,0.00481367 -0.0135303,0.0076108 -0.0261499,0.00871664 -0.0126196,0.00117089 -0.0298578,0.00188644 -0.0518445,0.00188644 -0.0227674,0 -0.040656,-0.000520397 -0.0534708,-0.00117089 -0.0126196,-0.000715545 -0.0225072,-0.00208159 -0.0291422,-0.00390298 -0.00670011,-0.00208159 -0.0115138,-0.00481367 -0.0142459,-0.0085215 -0.00253693,-0.00364278 -0.00481367,-0.0082613 -0.00670011,-0.0141808l-0.0584796 -0.174658 -0.326809 0 -0.055032 0.17004c-0.00188644,0.00617971 -0.00416317,0.0114487 -0.00715545,0.015807 -0.00273208,0.00416317 -0.00754575,0.0076108 -0.0139857,0.0101477 -0.00643991,0.00227674 -0.015807,0.00409812 -0.027516,0.00500882 -0.0119691,0.000910694 -0.027581,0.00143109 -0.0468357,0.00143109 -0.0206858,0 -0.036688,-0.000715545 -0.0483969,-0.00208159 -0.0117089,-0.00136604 -0.0197751,-0.00461852 -0.0241334,-0.00988754 -0.00455347,-0.00507387 -0.00617971,-0.0123594 -0.00481367,-0.0217916 0.00136604,-0.00943219 0.00481367,-0.0220518 0.0100827,-0.0376637l0.268264 -0.771748c0.00279713,-0.00754575 0.00578941,-0.0137255 0.00943219,-0.0186042 0.00364278,-0.00455347 0.00943219,-0.0082613 0.0172381,-0.0107332 0.00780595,-0.00234179 0.0185391,-0.00390298 0.0325898,-0.00461852 0.0137255,-0.000650496 0.0323296,-0.00117089 0.055032,-0.00117089 0.0264101,0 0.0474862,0.000520397 0.0633583,0.00117089 0.0156119,0.000715545 0.0277762,0.00227674 0.0364928,0.00461852 0.00871664,0.00247188 0.0151566,0.00617971 0.0187993,0.0112536 0.00390298,0.00481367 0.0070904,0.0114487 0.00988754,0.0201654l0.268915 0.771098zm-0.399535 -0.638006l-0.000650496 0 -0.123009 0.369677 0.246668 0 -0.123009 -0.369677zm1.53504 0.679768c0,0.00435832 -0.00117089,0.00845645 -0.00364278,0.0119041 -0.00253693,0.00364278 -0.00689526,0.00663506 -0.0135954,0.00871664 -0.00637486,0.00227674 -0.0150915,0.00416317 -0.0256946,0.00552921 -0.0107982,0.00136604 -0.0245237,0.00208159 -0.0410463,0.00208159 -0.0160672,0 -0.0295976,-0.000715545 -0.0403958,-0.00208159 -0.0107982,-0.00136604 -0.0192547,-0.00325248 -0.0254994,-0.00552921 -0.00637486,-0.00208159 -0.0107982,-0.00507387 -0.0135303,-0.00871664 -0.00273208,-0.00344763 -0.00390298,-0.00754575 -0.00390298,-0.0119041l0 -0.708 -0.00136604 0 -0.252197 0.707284c-0.00182139,0.00572436 -0.00461852,0.010538 -0.00871664,0.014441 -0.00416317,0.00370783 -0.00962734,0.00670011 -0.0165226,0.00897684 -0.00689526,0.00227674 -0.0158721,0.00364278 -0.0266053,0.00435832 -0.0106031,0.000650496 -0.023678,0.00117089 -0.0388346,0.00117089 -0.0153517,0 -0.0282315,-0.000715545 -0.0389647,-0.00188644 -0.0107982,-0.00110584 -0.0197751,-0.00273208 -0.0266703,-0.00526902 -0.00683021,-0.00253693 -0.0123594,-0.00552921 -0.0165226,-0.00917199 -0.00390298,-0.00344763 -0.00663506,-0.00780595 -0.0080011,-0.0126196l-0.243481 -0.707284 -0.00117089 0 0 0.708c0,0.00435832 -0.00136604,0.00845645 -0.00390298,0.0119041 -0.00227674,0.00364278 -0.00683021,0.00663506 -0.0137255,0.00871664 -0.00670011,0.00227674 -0.0151566,0.00416317 -0.0256946,0.00552921 -0.0106031,0.00136604 -0.0241334,0.00208159 -0.0408511,0.00208159 -0.0160672,0 -0.0295976,-0.000715545 -0.0402006,-0.00208159 -0.0107982,-0.00136604 -0.0195149,-0.00325248 -0.0258897,-0.00552921 -0.00670011,-0.00208159 -0.0110584,-0.00507387 -0.0135954,-0.00871664 -0.00247188,-0.00344763 -0.00364278,-0.00754575 -0.00364278,-0.0119041l0 -0.775196c0,-0.0229625 0.00598456,-0.0403958 0.0181488,-0.0525601 0.0121643,-0.0121643 0.0282315,-0.0181488 0.0483969,-0.0181488l0.115658 0c0.0206858,0 0.0383142,0.00162624 0.0530154,0.00507387 0.0148964,0.00344763 0.0277762,0.00891179 0.0383142,0.0167177 0.0107982,0.00780595 0.0197751,0.0181488 0.0270606,0.0309636 0.00715545,0.0128798 0.0133352,0.0284917 0.0188644,0.047291l0.188188 0.51838 0.00273208 0 0.194824 -0.517014c0.00598456,-0.0187993 0.0124245,-0.0346064 0.0192547,-0.0477464 0.00689526,-0.0128148 0.0149614,-0.0233528 0.0241334,-0.031419 0.00917199,-0.0082613 0.0201654,-0.0137255 0.0325898,-0.0171731 0.0126196,-0.00344763 0.0273208,-0.00507387 0.0438434,-0.00507387l0.118846 0c0.0121643,0 0.0227023,0.00162624 0.031419,0.00461852 0.00871664,0.00318743 0.0158721,0.0077409 0.0213363,0.0139857 0.00578941,0.00591951 0.00988754,0.0132701 0.0128798,0.0219868 0.00299228,0.00871664 0.00435832,0.0188644 0.00435832,0.030118l0 0.775196z"/>
   <line id="_89838728" class="fil2 str1" x1="0.656692" y1="0.439995" x2="0.656692" y2= "0.114747" />
   <line id="_90529672" class="fil2 str1" x1="0.9822" y1="0.439995" x2="0.9822" y2= "0.114747" />
   <line id="_88873184" class="fil2 str1" x1="1.63244" y1="0.439995" x2="1.63244" y2= "0.114747" />
   <line id="_89047400" class="fil2 str1" x1="1.30745" y1="0.439995" x2="1.30745" y2= "0.114747" />
   <line id="_48795480" class="fil2 str1" x1="1.95794" y1="0.439995" x2="1.95794" y2= "0.114747" />
   <line id="_87697416" class="fil2 str1" x1="2.28319" y1="0.439995" x2="2.28319" y2= "0.114747" />
   <line id="_87460568" class="fil2 str1" x1="0.331574" y1="0.439995" x2="0.331574" y2= "0.114747" />
   <line id="_88111800" class="fil2 str1" x1="2.61143" y1="0.439995" x2="2.61143" y2= "0.114747" />
   <line id="_89779384" class="fil2 str1" x1="2.93694" y1="0.439995" x2="2.93694" y2= "0.114747" />
   <line id="_91195720" class="fil2 str1" x1="3.25881" y1="0.439995" x2="3.25881" y2= "0.114747" />
   <line id="_89709768" class="fil2 str1" x1="3.58405" y1="0.439995" x2="3.58405" y2= "0.114747" />
   <line id="_48343384" class="fil2 str1" x1="3.9093" y1="0.439995" x2="3.9093" y2= "0.114747" />
   <line id="_88726520" class="fil2 str1" x1="0.656432" y1="2.71673" x2="0.656432" y2= "2.39148" />
   <line id="_89863896" class="fil2 str1" x1="0.98194" y1="2.71673" x2="0.98194" y2= "2.39148" />
   <line id="_89052328" class="fil2 str1" x1="1.63218" y1="2.71673" x2="1.63218" y2= "2.39148" />
   <line id="_90525016" class="fil2 str1" x1="1.30719" y1="2.71673" x2="1.30719" y2= "2.39148" />
   <line id="_88786464" class="fil2 str1" x1="1.95768" y1="2.71673" x2="1.95768" y2= "2.39148" />
   <line id="_48928224" class="fil2 str1" x1="2.28293" y1="2.71673" x2="2.28293" y2= "2.39148" />
   <line id="_90405880" class="fil2 str1" x1="0.331314" y1="2.71673" x2="0.331314" y2= "2.39148" />
   <line id="_88963376" class="fil2 str1" x1="2.61117" y1="2.71673" x2="2.61117" y2= "2.39148" />
   <line id="_90071336" class="fil2 str1" x1="2.93668" y1="2.71673" x2="2.93668" y2= "2.39148" />
   <line id="_87188792" class="fil2 str1" x1="3.25855" y1="2.71673" x2="3.25855" y2= "2.39148" />
   <line id="_89604440" class="fil2 str1" x1="3.58379" y1="2.71673" x2="3.58379" y2= "2.39148" />
   <line id="_89011904" class="fil2 str1" x1="3.90904" y1="2.71673" x2="3.90904" y2= "2.39148" />
  </g>
 </g>
</svg>
